<svg width="1199" height="202" viewBox="0 0 1199 202" fill="none" xmlns="http://www.w3.org/2000/svg">
<mask id="mask0_1_25" style="mask-type:alpha" maskUnits="userSpaceOnUse" x="0" y="0" width="1199" height="202">
<rect width="1199" height="202" fill="white"/>
</mask>
<g mask="url(#mask0_1_25)">
<ellipse cx="85.5007" cy="115.801" rx="85.2709" ry="78.6458" fill="#FFFEFE"/>
<ellipse cx="184.827" cy="115.354" rx="46.8521" ry="51.3879" fill="#FFFEFE"/>
<ellipse cx="230.742" cy="114.907" rx="30.9224" ry="39.3229" fill="#FFFEFE"/>
<ellipse cx="317.419" cy="89.8838" rx="75.4319" ry="52.7284" fill="#FFFEFE"/>
<ellipse cx="433.612" cy="109.992" rx="54.817" ry="59.4312" fill="#FFFEFE"/>
<ellipse cx="496.394" cy="103.289" rx="32.328" ry="52.7284" fill="#FFFEFE"/>
<ellipse cx="549.805" cy="139.037" rx="32.328" ry="52.7284" fill="#FFFEFE"/>
<ellipse cx="645.384" cy="135.463" rx="87.6135" ry="59.8781" fill="#FFFEFE"/>
<ellipse cx="794.373" cy="103.289" rx="87.6135" ry="59.8781" fill="#FFFEFE"/>
<ellipse cx="878.239" cy="100.161" rx="20.6149" ry="49.6005" fill="#FFFEFE"/>
<ellipse cx="950.859" cy="115.801" rx="68.8726" ry="59.8781" fill="#FFFEFE"/>
<ellipse cx="1045.03" cy="135.463" rx="42.1669" ry="59.8781" fill="#FFFEFE"/>
<ellipse cx="1138.74" cy="110.439" rx="60.9078" ry="59.8781" fill="#FFFEFE"/>
<rect x="0.229858" y="103.289" width="1199.41" height="102.776" fill="#FFFEFE"/>
<ellipse cx="1199.64" cy="82.7342" rx="39.3558" ry="59.8781" fill="#FFFEFE"/>
<ellipse cx="0.698387" cy="93.9055" rx="41.6984" ry="69.2619" fill="#FFFEFE"/>
</g>
</svg>
